# xmcd
#
# Track frame offsets:
# 187
# 14160
# 25825
# 38800
# 50800
# 67245
# 80330
# 92665
# 102362
# 112627
# 123372
# 134960
#
# Disc length: 1943 seconds
#
#
# Revision: 0
# Processed by: cddbd v1.5.1PL2 Copyright (c) Steve Scherf et al.
# Submitted via: FreeRIP 2.942 
#
DISCID=a807950c
DTITLE=Ike and Tina Turner - So Fine
DYEAR=1991
DGENRE=Pop
TTITLE0=It's Gonna Work Out Fine
TTITLE1=Poor Fool
TTITLE2=I Idolize You
TTITLE3=Tra La L La La
TTITLE4=You Should Have Treated Me Right
TTITLE5=Sleepless
TTITLE6=So Fine
TTITLE7=Ain't Nobody's Business
TTITLE8=I'm Fed Up
TTITLE9=You Got What You Wanted
TTITLE10=Cussin', Cryin' and Carryin' On
TTITLE11=Nothing You Can Do Boy
EXTD=
EXTT0=
EXTT1=
EXTT2=
EXTT3=
EXTT4=
EXTT5=
EXTT6=
EXTT7=
EXTT8=
EXTT9=
EXTT10=
EXTT11=
PLAYORDER=
